# xmcd
#
# Track frame offsets: 
#        150
#        14703
#        30364
#        41367
#        54836
#        67272
#        79648
#        93200
#        103993
#        116570
#        130107
#        144645
#        157065
#        171507
#        185112
#        198578
#        212083
#        226051
#        240924
#        256061
#        269370
#        280451
#        291188
#        304112
#        317474
#        330052
#
# Disc length: 4570 seconds
#
# Revision: 4
# Processed by: cddbd v1.5.2PL0 Copyright (c) Steve Scherf et al.
# Submitted via: ExactAudioCopy v1.1
#
DISCID=7111d81a
DTITLE=Milton Brown and His Musical Brownies - Daddy Of Western Swing_CD
DTITLE=2 ''Brownie Special''
DYEAR=2003
DGENRE=Western Swing
TTITLE0=St Louis Blues
TTITLE1=Brownie Special
TTITLE2=Copenhagen (inst)
TTITLE3=Chinatown My Chinatown
TTITLE4=Wabash Blues
TTITLE5=Some Of These Days
TTITLE6=Who's Sorry Now
TTITLE7=Just A Dream
TTITLE8=Cheesy Breeze (inst)
TTITLE9=Beautiful Texas
TTITLE10=The House At The End Of The Lane
TTITLE11=In The Shade Of The Old Apple Tree
TTITLE12=Shine On Harvest Moon
TTITLE13=Love In Bloom
TTITLE14=My Mary
TTITLE15=You're Tired Of Me
TTITLE16=Wheezie Anna
TTITLE17=One Of Us Was Wrong
TTITLE18=I'll Be Glad When You're Dead You Rascal You
TTITLE19=Sweet Georgia Brown
TTITLE20=You're Bound To Look Like A Monkey
TTITLE21=Dark Town Strutters Ball
TTITLE22=Taking Off (inst)
TTITLE23=Black And White Rag (inst)
TTITLE24=Crafton Blues (inst)
TTITLE25=Little Betty Brown
EXTD=
EXTT0=
EXTT1=
EXTT2=
EXTT3=
EXTT4=
EXTT5=
EXTT6=
EXTT7=
EXTT8=
EXTT9=
EXTT10=
EXTT11=
EXTT12=
EXTT13=
EXTT14=
EXTT15=
EXTT16=
EXTT17=
EXTT18=
EXTT19=
EXTT20=
EXTT21=
EXTT22=
EXTT23=
EXTT24=
EXTT25=
PLAYORDER=
